# xmcd CD database file
#
# Track frame offsets:
#	150
#	18877
#	53390
#	84142
#	111642
#	134155
#	171612
#	191577
#	219927
#	253295
#	293587
#
# Disc length: 4442 seconds
#
# Revision: 0
# Processed by: cddbd v1.5PL3 Copyright (c) Steve Scherf et al.
# Submitted via: CDex 1.50
#
DISCID=9e11580b
DTITLE=Susumu Yokota - Akafuji-Acid Mt.Fuji
DYEAR=1994
DGENRE=Techno
TTITLE0=Zenmai
TTITLE1=Kinoko
TTITLE2=Meijijingu
TTITLE3=Saboten
TTITLE4=Oh My God
TTITLE5=Tanbarin
TTITLE6=Oponchi
TTITLE7=Ao-Oni
TTITLE8=Akafuji
TTITLE9=Alphaville
TTITLE10=Tanuki
EXTD=YEAR: 1994
EXTT0=
EXTT1=
EXTT2=
EXTT3=
EXTT4=
EXTT5=
EXTT6=
EXTT7=
EXTT8=
EXTT9=
EXTT10=
PLAYORDER=
